<svg xmlns="http://www.w3.org/2000/svg" xmlns:xlink="http://www.w3.org/1999/xlink" width="500" zoomAndPan="magnify" viewBox="0 0 375 374.999991" height="500" preserveAspectRatio="xMidYMid meet" version="1.0"><defs><filter x="0%" y="0%" width="100%" height="100%" id="eaf49ecbdd"><feColorMatrix values="0 0 0 0 1 0 0 0 0 1 0 0 0 0 1 0 0 0 1 0" color-interpolation-filters="sRGB"/></filter><mask id="3352882d9f"><g filter="url(#eaf49ecbdd)"><rect x="-37.5" width="450" fill="#000000" y="-37.499999" height="449.999989" fill-opacity="0.15"/></g></mask><clipPath id="b21d6028ab"><path d="M 1.019531 0.875 L 106.769531 0.875 L 106.769531 108.875 L 1.019531 108.875 Z M 1.019531 0.875 " clip-rule="nonzero"/></clipPath><clipPath id="4c6865d120"><rect x="0" width="107" y="0" height="110"/></clipPath><clipPath id="1f042313aa"><path d="M 228.519531 227.375 L 334 227.375 L 334 335.375 L 228.519531 335.375 Z M 228.519531 227.375 " clip-rule="nonzero"/></clipPath></defs><g mask="url(#3352882d9f)"><g transform="matrix(1, 0, 0, 1, 40, 39)"><g clip-path="url(#4c6865d120)"><g clip-path="url(#b21d6028ab)"><path fill="#000000" d="M 106.769531 51.773438 C 106.769531 75.4375 91.210938 95.472656 69.757812 102.207031 L 69.757812 105.683594 C 69.757812 107.4375 68.339844 108.855469 66.585938 108.855469 L 41.207031 108.855469 C 39.453125 108.855469 38.035156 107.4375 38.035156 105.683594 L 38.035156 102.207031 C 16.582031 95.472656 1.019531 75.4375 1.019531 51.773438 Z M 56.078125 43.226562 C 56.425781 43.226562 52.160156 40.851562 51.714844 37.023438 C 50.851562 33.191406 54.449219 27.90625 59.882812 22.0625 C 65.3125 16.214844 67.007812 10.929688 64.246094 7.097656 C 61.902344 3.269531 55.730469 0.894531 56.078125 0.898438 C 55.726562 0.894531 60 3.265625 60.441406 7.097656 C 61.300781 10.925781 57.703125 16.21875 52.273438 22.0625 C 46.84375 27.90625 45.148438 33.195312 47.910156 37.027344 C 50.257812 40.859375 56.425781 43.226562 56.078125 43.226562 Z M 34.929688 43.226562 C 35.277344 43.226562 31.007812 40.851562 30.5625 37.023438 C 29.703125 33.191406 33.300781 27.90625 38.730469 22.0625 C 44.160156 16.214844 45.859375 10.929688 43.097656 7.097656 C 40.753906 3.269531 34.578125 0.894531 34.929688 0.898438 C 34.578125 0.894531 38.851562 3.265625 39.292969 7.097656 C 40.152344 10.925781 36.554688 16.21875 31.125 22.0625 C 25.691406 27.90625 24 33.195312 26.761719 37.027344 C 29.109375 40.859375 35.273438 43.226562 34.929688 43.226562 Z M 77.226562 43.226562 C 77.578125 43.226562 73.308594 40.851562 72.863281 37.023438 C 72.003906 33.191406 75.597656 27.90625 81.03125 22.0625 C 86.460938 16.214844 88.160156 10.929688 85.394531 7.097656 C 83.050781 3.269531 76.878906 0.894531 77.226562 0.898438 C 76.875 0.894531 81.148438 3.265625 81.589844 7.097656 C 82.453125 10.925781 78.851562 16.21875 73.425781 22.0625 C 67.992188 27.90625 66.296875 33.195312 69.058594 37.027344 C 71.40625 40.859375 77.574219 43.226562 77.226562 43.226562 Z M 77.226562 43.226562 " fill-opacity="1" fill-rule="nonzero"/></g></g></g></g><g clip-path="url(#1f042313aa)"><path fill="#b7b5b5" d="M 333.976562 278.152344 C 333.976562 301.761719 318.460938 321.746094 297.066406 328.464844 L 297.066406 331.933594 C 297.066406 333.679688 295.652344 335.097656 293.90625 335.097656 L 268.59375 335.097656 C 266.847656 335.097656 265.429688 333.679688 265.429688 331.933594 L 265.429688 328.464844 C 244.039062 321.746094 228.519531 301.761719 228.519531 278.152344 Z M 283.425781 269.625 C 283.773438 269.625 279.519531 267.257812 279.074219 263.4375 C 278.214844 259.613281 281.800781 254.34375 287.21875 248.511719 C 292.632812 242.679688 294.328125 237.40625 291.570312 233.582031 C 289.234375 229.761719 283.078125 227.394531 283.425781 227.398438 C 283.074219 227.394531 287.335938 229.761719 287.777344 233.582031 C 288.636719 237.402344 285.046875 242.679688 279.632812 248.511719 C 274.214844 254.339844 272.527344 259.621094 275.28125 263.441406 C 277.621094 267.261719 283.769531 269.625 283.425781 269.625 Z M 262.335938 269.625 C 262.683594 269.625 258.425781 267.257812 257.980469 263.4375 C 257.125 259.613281 260.710938 254.34375 266.125 248.511719 C 271.542969 242.679688 273.234375 237.40625 270.480469 233.582031 C 268.140625 229.761719 261.984375 227.394531 262.335938 227.398438 C 261.984375 227.394531 266.246094 229.761719 266.6875 233.582031 C 267.542969 237.402344 263.953125 242.679688 258.542969 248.511719 C 253.125 254.339844 251.433594 259.621094 254.1875 263.441406 C 256.53125 267.261719 262.679688 269.625 262.335938 269.625 Z M 304.515625 269.625 C 304.863281 269.625 300.609375 267.257812 300.164062 263.4375 C 299.304688 259.613281 302.894531 254.34375 308.308594 248.511719 C 313.722656 242.679688 315.417969 237.40625 312.664062 233.582031 C 310.324219 229.761719 304.167969 227.394531 304.515625 227.398438 C 304.167969 227.394531 308.425781 229.761719 308.867188 233.582031 C 309.726562 237.402344 306.136719 242.679688 300.722656 248.511719 C 295.304688 254.339844 293.617188 259.621094 296.371094 263.441406 C 298.710938 267.261719 304.863281 269.625 304.515625 269.625 Z M 304.515625 269.625 " fill-opacity="1" fill-rule="nonzero"/></g></svg>